<svg xmlns="http://www.w3.org/2000/svg" viewBox="0 0 1305 1305">
    <defs>
        <style>.cls-1{fill:#9ca963;}.cls-2,.cls-3,.cls-4{fill:none;stroke:#9caa64;stroke-width:50px;}.cls-2,.cls-3{stroke-linecap:round;}.cls-2{stroke-miterlimit:10;}.cls-3,.cls-4{stroke-linejoin:round;}.cls-4{stroke-linecap:square;}</style>
    </defs>
    <g id="Layer_2" data-name="Layer 2">
        <g id="guidelines">
            <path class="cls-1" d="M652.5,80a569.41,569.41,0,0,1,320,97.73,574.46,574.46,0,0,1,207.51,252,571.61,571.61,0,0,1-52.77,542.85A574.46,574.46,0,0,1,875.32,1180a571.61,571.61,0,0,1-542.85-52.77A574.46,574.46,0,0,1,125,875.32a571.61,571.61,0,0,1,52.77-542.85A574.46,574.46,0,0,1,429.68,125,568.89,568.89,0,0,1,652.5,80m0-80C292.13,0,0,292.13,0,652.5S292.13,1305,652.5,1305,1305,1012.87,1305,652.5,1012.87,0,652.5,0Z"/>
            <polyline class="cls-2" points="310.08 994.92 994.92 994.92 994.92 820.15"/>
            <path class="cls-3" d="M310.08,878.41H784.19c1-2.17,387.43-287.12,111.25-199.73C614.89,767.45,784.19,867.31,784.19,867.31"/>
            <polyline class="cls-4" points="635.51 774.38 310.08 774.38 641.69 662.03 310.08 662.03"/>
            <path class="cls-2" d="M994.92,564.73H310.09s82.3-250.6,308.31-91.45C618.4,473.28,994.92,51.13,994.92,564.73Z"/>
        </g>
    </g>
</svg>